<?xml version="1.0" encoding="UTF-8"?>
<svg version="1.1" xmlns="http://www.w3.org/2000/svg" width="500" height="500">
<path d="M0 0 C1.10841562 0.18969864 2.21683125 0.37939728 3.35883522 0.57484436 C7.06942462 1.21173709 10.77806546 1.85933018 14.48681641 2.50683594 C17.16664955 2.96984338 19.84687995 3.43053237 22.52709961 3.89129639 C28.32576904 4.88936018 34.12348406 5.89281741 39.92059326 6.89990234 C48.3955179 8.37211346 56.8718869 9.83586328 65.34867978 11.29727459 C76.00137912 13.13385222 86.65380749 14.97198885 97.30551147 16.81433105 C121.49744295 20.99845177 145.69270216 25.16288574 169.89024305 29.31444073 C172.64741275 29.78749125 175.40457365 30.26059298 178.16173172 30.73371124 C185.44776391 31.98396128 192.73380758 33.23414437 200.01987648 34.48418045 C212.28030802 36.58765523 224.54063629 38.69173046 236.80078125 40.796875 C237.63288927 40.93974363 238.46499729 41.08261226 239.3223207 41.22981024 C248.1772777 42.75023648 257.03199952 44.27201114 265.88607788 45.79754639 C268.15745636 46.18885758 270.42883502 46.58016768 272.70021415 46.97147512 C274.1741384 47.22541405 275.64805691 47.47938636 277.12196946 47.73339319 C285.70953718 49.21307765 294.29866742 50.68275444 302.89085197 52.13545227 C307.25506653 52.87399942 311.6183192 53.61811916 315.98140335 54.36331177 C317.91654349 54.69225138 319.85215467 55.01843483 321.78828049 55.34152222 C324.36955523 55.77235895 326.94904241 56.21266425 329.52832031 56.65527344 C330.25272938 56.77343918 330.97713844 56.89160492 331.7234993 57.01335144 C340.55615427 58.55417796 347.59612125 61.50519618 353.71337891 68.24121094 C359.15420088 76.91252096 356.8337804 88.35296131 355.10986328 97.95263672 C354.93626408 98.96646046 354.76266487 99.98028419 354.58380508 101.02482986 C354.00105003 104.41377372 353.40401966 107.80004301 352.80712891 111.18652344 C352.37802399 113.66550352 351.9498509 116.14464504 351.52252197 118.62393188 C350.5906652 124.01884077 349.65275189 129.41264088 348.70935059 134.80554199 C347.19138033 143.48335149 345.68627328 152.16336592 344.18310547 160.84375 C343.65321201 163.90296706 343.12322775 166.96216839 342.59320068 170.0213623 C342.39221374 171.1814959 342.39221374 171.1814959 342.18716645 172.36506653 C341.20749309 178.01876896 340.2256656 183.67209522 339.2432251 189.32531738 C334.87736603 214.45456339 330.56273874 239.59239954 326.26464844 264.73331833 C325.17069606 271.13166836 324.07551727 277.52980805 322.97998047 283.92788696 C322.70961015 285.50693327 322.70961015 285.50693327 322.43377781 287.11787951 C321.70693502 291.36273888 320.98005046 295.6075911 320.25308037 299.85242867 C318.26804739 311.44331681 316.28469182 323.03448571 314.30639648 334.62652588 C312.76038258 343.68520669 311.20991232 352.74311193 309.65403342 361.80010378 C308.8515894 366.47212132 308.0512587 371.14447609 307.25644684 375.81779861 C306.52213279 380.13521473 305.78201155 384.45159461 305.03739834 388.76724601 C304.76851756 390.33168994 304.50173545 391.89649637 304.23730564 393.46169877 C299.95593394 418.78094014 299.95593394 418.78094014 290.96728516 425.55761719 C280.79936152 431.62454875 267.18780478 427.58104703 256.2175293 425.64038086 C254.57597131 425.35767312 252.93426004 425.07585432 251.29241085 424.79484272 C246.82101059 424.02696239 242.3518484 423.24670561 237.88296318 422.46434021 C233.08130094 421.62605185 228.27759734 420.79962014 223.47412109 419.97180176 C214.14185292 418.3616704 204.8114078 416.74121283 195.48157036 415.11706245 C183.59525107 413.04826536 171.70695126 410.99094071 159.81860352 408.93383789 C155.43573421 408.17534141 151.05287803 407.41676917 146.67002869 406.65815735 C145.58097538 406.46966813 144.49192207 406.28117891 143.36986715 406.0869779 C136.71847839 404.93561694 130.06732805 403.78288924 123.41635662 402.62912005 C95.29054836 397.75009533 67.15755608 392.91598652 39.0144825 388.13756371 C33.4442313 387.19164791 27.8743397 386.24362818 22.30455017 385.29499817 C20.95716893 385.06554067 20.95716893 385.06554067 19.58256787 384.83144766 C16.01534066 384.22393551 12.44811976 383.61638642 8.88092792 383.00866663 C-1.40461773 381.2564966 -11.69122469 379.51087852 -21.97964013 377.77563679 C-28.37110096 376.69696572 -34.76105548 375.60966146 -41.14989269 374.51555908 C-44.80022379 373.89073978 -48.4511089 373.26986793 -52.10394287 372.65983582 C-56.03811667 372.00280178 -59.96890777 371.32735963 -63.8996582 370.65014648 C-65.03416381 370.46382754 -66.16866941 370.2775086 -67.33755398 370.08554363 C-76.45207954 368.48872315 -84.09123729 366.49252267 -90.09521484 359.12011719 C-96.96405853 348.28761289 -92.82665199 333.5644469 -90.71069336 321.68359375 C-90.43153243 320.06547252 -90.15340899 318.44717202 -89.87622738 316.82871056 C-89.12305042 312.44845036 -88.35546752 308.07082657 -87.58522797 303.69353914 C-86.7668225 299.02750837 -85.96203116 294.35912868 -85.15563965 289.69100952 C-83.78031403 281.74020137 -82.39662047 273.79088871 -81.00686646 265.84259033 C-79.02429857 254.50383563 -77.05467326 243.16286356 -75.08846653 231.82126164 C-72.10034357 214.58641895 -69.10342107 197.35312349 -66.09912109 180.12109375 C-62.96240049 162.12929584 -59.83750847 144.13549904 -56.72412109 126.13964844 C-55.95522866 121.69660261 -55.18624587 117.25357243 -54.41723633 112.81054688 C-54.23990432 111.78591591 -54.06257231 110.76128494 -53.8798666 109.70560455 C-52.74279011 103.13672228 -51.60370905 96.56819101 -50.46264648 90 C-50.31361279 89.14174873 -50.16457911 88.28349747 -50.01102924 87.39923859 C-49.29647351 83.28611626 -48.58001971 79.17334206 -47.85939026 75.0612793 C-46.45739817 67.0505489 -45.08043012 59.03663079 -43.7491045 51.01381111 C-43.04431144 46.77518645 -42.32979519 42.53822564 -41.61443901 38.30137253 C-41.27239261 36.25971399 -40.93491166 34.21728453 -40.60234261 32.17406082 C-40.13955137 29.33286367 -39.66088627 26.4947424 -39.17895508 23.65673828 C-39.04705969 22.82097134 -38.9151643 21.98520439 -38.77927208 21.12411118 C-37.68596638 14.82897281 -35.8578779 8.88914538 -31.32177734 4.21777344 C-20.76641569 -3.01421692 -12.25466694 -2.16630016 0 0 Z " fill="#1FC870" transform="translate(118.28662109375,34.7587890625)"/>
<path d="M0 0 C5.43809871 -0.1641232 10.41687988 0.43692113 15.7578125 1.42578125 C16.58272186 1.57403854 17.40763123 1.72229584 18.25753784 1.87504578 C19.99773771 2.18911135 21.73740768 2.5061258 23.4765625 2.82592773 C26.09513093 3.30701244 28.71531118 3.77831662 31.3359375 4.24804688 C40.62337101 5.92666204 49.82607475 7.77552753 59 10 C58.4495905 17.12299319 57.58326198 24.08961806 56.28515625 31.11328125 C56.11374115 32.06200104 55.94232605 33.01072083 55.76571655 33.9881897 C55.20263328 37.09715925 54.63261928 40.20481372 54.0625 43.3125 C53.6657432 45.49611087 53.26934704 47.6797873 52.87329102 49.86352539 C50.67114735 61.97950339 48.43060686 74.0883132 46.1796875 86.1953125 C45.94956467 87.43393539 45.71944183 88.67255829 45.48234558 89.94871521 C44.35947057 95.98987965 43.23296872 102.03032769 42.09985352 108.06958008 C41.69022095 110.26382605 41.28063206 112.45808018 40.87109375 114.65234375 C40.68090668 115.65939362 40.4907196 116.66644348 40.29476929 117.70401001 C40.12329376 118.62531708 39.95181824 119.54662415 39.77514648 120.49584961 C39.54939186 121.69859779 39.54939186 121.69859779 39.31907654 122.92564392 C38.92398425 125.1443957 38.92398425 125.1443957 39 128 C39.94617188 127.28457031 40.89234375 126.56914062 41.8671875 125.83203125 C49.87152456 119.7957048 57.93387544 113.85149114 66.07373047 107.99926758 C71.57803041 104.03802634 77.04665364 100.0310494 82.5 96 C88.64009722 91.4624024 94.80354778 86.9603334 101 82.5 C110.38780773 75.74016251 119.69696495 68.87582656 129 62 C132.1866896 59.64473369 135.37403087 57.2903568 138.5625 54.9375 C139.72664429 54.07838013 139.72664429 54.07838013 140.91430664 53.2019043 C147.28525739 48.50867038 153.6946501 43.86989783 160.12719727 39.26147461 C160.82514404 38.76010986 161.52309082 38.25874512 162.2421875 37.7421875 C163.23750488 37.04174316 163.23750488 37.04174316 164.25292969 36.32714844 C166.19127717 34.93347525 166.19127717 34.93347525 168.2578125 32.5703125 C175.56744197 28.38445631 188.27755936 32.80177938 196.203125 34.28515625 C197.4069281 34.50570175 198.6107312 34.72624725 199.85101318 34.95347595 C203.65169697 35.65106297 207.45084503 36.35663948 211.25 37.0625 C213.84495429 37.54024505 216.44000556 38.01746361 219.03515625 38.49414062 C225.35790422 39.65667964 231.67941502 40.82576112 238 42 C235.00383318 45.07345543 232.00691453 47.90459268 228.5859375 50.49609375 C227.75239746 51.1298291 226.91885742 51.76356445 226.06005859 52.41650391 C225.17398926 53.08343262 224.28791992 53.75036133 223.375 54.4375 C222.4463916 55.14052246 221.5177832 55.84354492 220.56103516 56.56787109 C211.43465048 63.46112171 202.22652405 70.24174228 193 77 C183.39501514 84.04187828 173.81908583 91.10111276 164.40625 98.3984375 C160.32047288 101.54115455 156.15742276 104.57811587 152 107.625 C143.96441247 113.51455344 136.02146426 119.51798078 128.1171875 125.58251953 C114.52019139 136 114.52019139 136 112 136 C120.88636139 152.79668239 129.77518687 169.59206932 138.6875 186.375 C139.03637268 187.03200897 139.38524536 187.68901794 139.74468994 188.36593628 C145.36127288 198.94062748 151.01656185 209.49420138 156.68164062 220.04296875 C160.56900603 227.29384069 164.39868097 234.57221145 168.1875 241.875 C175.05262469 255.09993962 182.22124228 268.1546827 189.421875 281.19921875 C189.97875 282.21169678 190.535625 283.2241748 191.109375 284.26733398 C192.18382673 286.22069362 193.2618214 288.17210961 194.34375 290.12133789 C194.82328125 290.99395264 195.3028125 291.86656738 195.796875 292.765625 C196.43641113 293.92239746 196.43641113 293.92239746 197.08886719 295.10253906 C198 297 198 297 198 299 C191.49117378 298.25752814 185.07728887 297.17428571 178.6328125 296.00390625 C177.55804657 295.81030014 176.48328064 295.61669403 175.37594604 295.41722107 C173.111614 295.008892 170.84746701 294.59953557 168.58349609 294.18920898 C165.14332802 293.56582119 161.70257952 292.94572358 158.26171875 292.32617188 C156.0520483 291.92727733 153.84241176 291.52819494 151.6328125 291.12890625 C150.10734299 290.85379967 150.10734299 290.85379967 148.55105591 290.57313538 C146.62209724 290.22314144 144.69411351 289.86771887 142.76728821 289.50616455 C140.90479431 289.16549588 139.0375165 288.8501162 137.16667175 288.55877686 C135.83373833 288.33596039 135.83373833 288.33596039 134.47387695 288.10864258 C133.68801712 287.98709305 132.90215729 287.86554352 132.09248352 287.74031067 C127.72692736 286.19579776 126.02016232 281.89850911 124 278 C123.48550293 277.07541992 122.97100586 276.15083984 122.44091797 275.19824219 C120.73529637 272.10944974 119.08315991 268.99611945 117.4375 265.875 C112.87709151 257.31158647 108.24343309 248.80314603 103.4375 240.375 C99.02715334 232.63400978 94.72174262 224.8454526 90.5 217 C84.62468933 206.08361031 78.55190056 195.28712764 72.421875 184.51220703 C70.25742854 180.68800476 68.1254798 176.84596635 66 173 C61.18114777 174.56336809 57.69472364 177.31119827 53.75 180.375 C47.79949207 184.91513083 41.79434214 189.35951593 35.6875 193.6875 C34.6032373 194.46262939 34.6032373 194.46262939 33.49707031 195.25341797 C32.8212793 195.73053223 32.14548828 196.20764648 31.44921875 196.69921875 C30.85455811 197.12033936 30.25989746 197.54145996 29.6472168 197.9753418 C28 199 28 199 25 200 C24.88970459 200.90588867 24.77940918 201.81177734 24.66577148 202.74511719 C23.49209477 211.99903811 21.90599906 221.10234294 20.0625 230.25 C17.76987826 241.79534974 15.69189338 253.34968154 14 265 C3.3276926 264.54483029 -7.05979367 262.50873313 -17.53930664 260.56152344 C-20.58563622 259.99570271 -23.63346258 259.4385806 -26.68164062 258.8828125 C-28.62248752 258.5265408 -30.56324611 258.16978761 -32.50390625 257.8125 C-33.86788292 257.56246216 -33.86788292 257.56246216 -35.25941467 257.30737305 C-36.52234596 257.07207886 -36.52234596 257.07207886 -37.81079102 256.83203125 C-38.54959 256.69514893 -39.28838898 256.5582666 -40.04957581 256.41723633 C-42 256 -42 256 -45 255 C-44.54766132 243.64069383 -42.39607855 232.74694928 -40.1875 221.625 C-39.49005135 218.07618844 -38.79682301 214.52656602 -38.10546875 210.9765625 C-37.93087631 210.08207901 -37.75628387 209.18759552 -37.57640076 208.26600647 C-36.12709558 200.78513056 -34.80997202 193.28474882 -33.52005005 185.77497864 C-31.80576764 175.81121591 -29.97645994 165.86962735 -28.13839722 155.92807007 C-27.14409027 150.54892795 -26.15393789 145.16902164 -25.1640625 139.7890625 C-24.97180588 138.74427231 -24.77954926 137.69948212 -24.58146667 136.62303162 C-22.98399718 127.93243778 -21.42129913 119.23614429 -19.87866211 110.53564453 C-17.99254678 99.91379524 -16.05841027 89.30081876 -14.125 78.6875 C-11.46200079 64.06556265 -8.81237187 49.44133275 -6.1875 34.8125 C-6.0466095 34.02773285 -5.90571899 33.2429657 -5.76055908 32.43441772 C-3.82071198 21.62639203 -1.90302921 10.81456754 0 0 Z " fill="#FCFEFD" transform="translate(166,99)"/>
<path d="M0 0 C3.96 0 7.92 0 12 0 C12 0.66 12 1.32 12 2 C15.63 2 19.26 2 23 2 C23 2.66 23 3.32 23 4 C23.78246094 3.98839844 24.56492187 3.97679687 25.37109375 3.96484375 C26.38300781 3.95582031 27.39492187 3.94679688 28.4375 3.9375 C29.44683594 3.92589844 30.45617187 3.91429687 31.49609375 3.90234375 C34 4 34 4 35 5 C36.85287502 5.07226502 38.70833878 5.0838122 40.5625 5.0625 C41.57441406 5.05347656 42.58632812 5.04445313 43.62890625 5.03515625 C44.41136719 5.02355469 45.19382813 5.01195312 46 5 C46 5.99 46 6.98 46 8 C49.63 7.67 53.26 7.34 57 7 C57.495 7.99 57.495 7.99 58 9 C60.1264918 9.5631612 60.1264918 9.5631612 62.69140625 9.8515625 C63.63564453 9.98046875 64.57988281 10.109375 65.55273438 10.2421875 C66.54595703 10.36851562 67.53917969 10.49484375 68.5625 10.625 C69.55958984 10.7590625 70.55667969 10.893125 71.58398438 11.03125 C74.05502779 11.36229888 76.52689052 11.68482144 79 12 C78.67 12.66 78.34 13.32 78 14 C63.31438513 12.43384609 48.79513215 9.8571978 34.2479248 7.34362793 C31.56154322 6.88159065 28.87392006 6.42700149 26.18631363 5.97215271 C22.96175593 5.42471694 19.73878859 4.86807567 16.515625 4.3125 C15.31778381 4.11035889 14.11994263 3.90821777 12.88580322 3.69995117 C11.7765448 3.5063501 10.66728638 3.31274902 9.52441406 3.11328125 C8.55119202 2.94610596 7.57796997 2.77893066 6.57525635 2.60668945 C4 2 4 2 0 0 Z " fill="#31B371" transform="translate(50,403)"/>
<path d="M0 0 C1.14145981 0.1997644 2.28291962 0.39952881 3.45896912 0.60534668 C7.07681083 1.240177 10.69267927 1.88554239 14.30859375 2.53125 C16.77266334 2.96554287 19.23685498 3.39914388 21.70117188 3.83203125 C27.71758117 4.89043607 33.73240902 5.95747877 39.74609375 7.03125 C39.74609375 7.36125 39.74609375 7.69125 39.74609375 8.03125 C37.76699977 8.05811553 35.78780404 8.07758375 33.80859375 8.09375 C32.70644531 8.10535156 31.60429687 8.11695313 30.46875 8.12890625 C27.74609375 8.03125 27.74609375 8.03125 26.74609375 7.03125 C24.98216249 6.74524756 23.20890339 6.51628068 21.43359375 6.3125 C20.35851562 6.18488281 19.2834375 6.05726562 18.17578125 5.92578125 C17.04398438 5.79558594 15.9121875 5.66539063 14.74609375 5.53125 C12.51647104 5.2747672 10.28727302 5.01455545 8.05859375 4.75 C6.56779297 4.57887695 6.56779297 4.57887695 5.046875 4.40429688 C2.74609375 4.03125 2.74609375 4.03125 1.74609375 3.03125 C0.23139927 2.79932135 -1.29145187 2.61909762 -2.81640625 2.46875 C-3.64269531 2.38496094 -4.46898438 2.30117188 -5.3203125 2.21484375 C-5.95839844 2.15425781 -6.59648438 2.09367187 -7.25390625 2.03125 C-7.25390625 1.37125 -7.25390625 0.71125 -7.25390625 0.03125 C-9.50447347 0.14558363 -11.75437299 0.27311436 -14.00390625 0.40625 C-15.88335937 0.51066406 -15.88335937 0.51066406 -17.80078125 0.6171875 C-20.91939119 0.99113847 -22.56378646 1.58562488 -25.25390625 3.03125 C-25.91390625 2.70125 -26.57390625 2.37125 -27.25390625 2.03125 C-27.25390625 2.69125 -27.25390625 3.35125 -27.25390625 4.03125 C-27.91390625 4.03125 -28.57390625 4.03125 -29.25390625 4.03125 C-28.25390625 1.03125 -28.25390625 1.03125 -25.25390625 -0.65625 C-17.18896622 -3.77199418 -8.21147065 -1.48172811 0 0 Z " fill="#32AE6F" transform="translate(119.25390625,34.96875)"/>
<path d="M0 0 C6.74352995 -0.40282148 12.4928817 0.44354709 19 2.203125 C27.90352031 4.56812258 36.82362366 5.44562432 46 6 C46 6.66 46 7.32 46 8 C47.23363281 8.09087891 47.23363281 8.09087891 48.4921875 8.18359375 C50.81680295 8.35807412 53.14100937 8.5380644 55.46484375 8.72265625 C57.60181194 8.8903079 59.73971725 9.04717328 61.87890625 9.18359375 C66.91479968 9.56032471 70.58024396 10.3248845 75 13 C71.99887195 14.50056403 69.78675835 13.61233053 66.50244141 13.04370117 C65.83557816 12.93001694 65.1687149 12.8163327 64.48164368 12.69920349 C62.27042611 12.3203689 60.06101389 11.93196208 57.8515625 11.54296875 C56.31707389 11.27689843 54.78251682 11.01122271 53.24789429 10.7459259 C50.02746224 10.1876441 46.80789907 9.62464719 43.58886719 9.05834961 C39.46553038 8.33334165 35.3403006 7.61985321 31.21434975 6.90989208 C28.04281282 6.36286974 24.87235546 5.80978947 21.7021904 5.25487709 C20.18188979 4.98949824 18.66126231 4.72598494 17.14030838 4.46437645 C15.0111925 4.09720942 12.88366259 3.72192499 10.75634766 3.34448242 C9.54548492 3.13272873 8.33462219 2.92097504 7.08706665 2.70280457 C4.39637848 2.09023991 2.37023899 1.37607184 0 0 Z " fill="#31AD6E" transform="translate(306,447)"/>
<path d="M0 0 C0.33 0 0.66 0 1 0 C1.02687279 1.81242052 1.04633715 3.62495233 1.0625 5.4375 C1.07410156 6.44683594 1.08570313 7.45617187 1.09765625 8.49609375 C1 11 1 11 0 12 C-0.23427778 14.01594582 -0.41336124 16.038474 -0.5625 18.0625 C-0.64628906 19.16722656 -0.73007812 20.27195312 -0.81640625 21.41015625 C-0.87699219 22.26480469 -0.93757813 23.11945313 -1 24 C-1.66 24 -2.32 24 -3 24 C-2.97679687 24.58007812 -2.95359375 25.16015625 -2.9296875 25.7578125 C-2.91164063 26.53898437 -2.89359375 27.32015625 -2.875 28.125 C-2.85179687 28.89070313 -2.82859375 29.65640625 -2.8046875 30.4453125 C-3.04070764 33.53245592 -4.01288856 36.06769837 -5 39 C-5.42497905 41.45018787 -5.79938632 43.90963927 -6.125 46.375 C-6.29257812 47.62023437 -6.46015625 48.86546875 -6.6328125 50.1484375 C-6.75398438 51.08945312 -6.87515625 52.03046875 -7 53 C-7.66 52.67 -8.32 52.34 -9 52 C-8.40770562 45.30575158 -7.54510973 38.71198047 -6.40625 32.08984375 C-6.25466431 31.19632706 -6.10307861 30.30281036 -5.94689941 29.38221741 C-5.62922745 27.51566977 -5.30983443 25.64941428 -4.98876953 23.78344727 C-4.49604906 20.91449495 -4.0114058 18.04425258 -3.52734375 15.17382812 C-3.21662679 13.35408448 -2.90544601 11.53441995 -2.59375 9.71484375 C-2.44893188 8.85455063 -2.30411377 7.99425751 -2.15490723 7.1078949 C-1.11482383 1.11482383 -1.11482383 1.11482383 0 0 Z " fill="#2DAB6B" transform="translate(38,302)"/>
<path d="M0 0 C3.63 0 7.26 0 11 0 C11 0.66 11 1.32 11 2 C11.61488281 1.98839844 12.22976562 1.97679687 12.86328125 1.96484375 C13.67152344 1.95582031 14.47976562 1.94679688 15.3125 1.9375 C16.51326172 1.92009766 16.51326172 1.92009766 17.73828125 1.90234375 C20 2 20 2 23 3 C24.89212737 3.22179785 26.78884472 3.40614015 28.6875 3.5625 C29.68136719 3.64628906 30.67523438 3.73007812 31.69921875 3.81640625 C32.83810547 3.90728516 32.83810547 3.90728516 34 4 C34 4.66 34 5.32 34 6 C35.28197266 5.98259766 35.28197266 5.98259766 36.58984375 5.96484375 C37.69457031 5.95582031 38.79929688 5.94679688 39.9375 5.9375 C41.03964844 5.92589844 42.14179688 5.91429687 43.27734375 5.90234375 C46 6 46 6 47 7 C50.32402697 7.5381758 53.65724826 7.96620477 56.99609375 8.40234375 C60 9 60 9 62 11 C54.52184453 10.41919056 47.17747124 9.48373042 39.78515625 8.22265625 C38.76699326 8.05124619 37.74883026 7.87983612 36.69981384 7.70323181 C34.56928723 7.34312019 32.4391265 6.98083758 30.30932617 6.61645508 C27.04798595 6.06002369 23.78486111 5.51504777 20.52148438 4.97070312 C18.44259111 4.61787753 16.36381077 4.2643857 14.28515625 3.91015625 C12.82578392 3.66786034 12.82578392 3.66786034 11.33692932 3.42066956 C10.43176071 3.26388229 9.5265921 3.10709503 8.59399414 2.94555664 C7.80110489 2.81089493 7.00821564 2.67623322 6.19129944 2.53749084 C4 2 4 2 0 0 Z " fill="#32B371" transform="translate(201,429)"/>
<path d="M0 0 C1.19376575 3.54286555 0.82802614 6.21584897 0.19555664 9.87011719 C-0.00472641 11.05103943 -0.20500946 12.23196167 -0.41136169 13.44866943 C-0.63526077 14.71857727 -0.85915985 15.98848511 -1.08984375 17.296875 C-1.31618754 18.61383045 -1.54180926 19.93091019 -1.76673889 21.24810791 C-2.35960489 24.70828599 -2.96224997 28.16669106 -3.56695557 31.62481689 C-4.18272008 35.15641046 -4.78920956 38.6895948 -5.39648438 42.22265625 C-6.58858968 49.15002155 -7.79103482 56.07555777 -9 63 C-9.33 63 -9.66 63 -10 63 C-10.02708567 61.39592672 -10.04643483 59.7917215 -10.0625 58.1875 C-10.07410156 57.29417969 -10.08570313 56.40085937 -10.09765625 55.48046875 C-10 53 -10 53 -9 50 C-8.77674186 47.94106379 -8.59294241 45.87766347 -8.4375 43.8125 C-8.35371094 42.72582031 -8.26992188 41.63914062 -8.18359375 40.51953125 C-8.12300781 39.68808594 -8.06242187 38.85664063 -8 38 C-7.34 38 -6.68 38 -6 38 C-6 33.71 -6 29.42 -6 25 C-5.67 25 -5.34 25 -5 25 C-4.93941406 24.37351562 -4.87882812 23.74703125 -4.81640625 23.1015625 C-4.73261719 22.28429687 -4.64882813 21.46703125 -4.5625 20.625 C-4.44068359 19.40683594 -4.44068359 19.40683594 -4.31640625 18.1640625 C-4 16 -4 16 -3 14 C-2.63729412 12.00511766 -2.30830925 10.00401011 -2 8 C-1.11111111 2.22222222 -1.11111111 2.22222222 0 0 Z " fill="#31AE6F" transform="translate(443,298)"/>
<path d="M0 0 C10.44119319 0.48197519 20.57569845 2.12776081 30.85083008 3.95629883 C33.58714485 4.44187337 36.32558031 4.91385801 39.06445312 5.38476562 C40.81524514 5.69190581 42.56590159 5.99982002 44.31640625 6.30859375 C45.53669273 6.51807899 45.53669273 6.51807899 46.78163147 6.73179626 C50.48458864 7.39942336 53.74238829 8.00089937 57 10 C48.71821284 10.33127149 39.92792029 9.67967575 32.0546875 6.99609375 C27.83797812 5.62107982 23.60716509 5.21122071 19.21484375 4.70117188 C14.18194031 4.09097016 14.18194031 4.09097016 12 3 C9.9625237 2.77141886 7.91959697 2.58975722 5.875 2.4375 C4.23144531 2.31181641 4.23144531 2.31181641 2.5546875 2.18359375 C1.71164062 2.12300781 0.86859375 2.06242187 0 2 C0 1.34 0 0.68 0 0 Z " fill="#30AC6E" transform="translate(368,79)"/>
<path d="M0 0 C0.33 0 0.66 0 1 0 C0.85978195 2.64624284 0.71310224 5.29184578 0.5625 7.9375 C0.50352539 9.06961914 0.50352539 9.06961914 0.44335938 10.22460938 C0.11328125 15.88671875 0.11328125 15.88671875 -1 17 C-1.20888708 18.99603206 -1.36775477 20.99742941 -1.5 23 C-1.88888889 28.88888889 -1.88888889 28.88888889 -3 30 C-3.20699563 31.49496842 -3.36679259 32.9966592 -3.5 34.5 C-3.88888889 38.88888889 -3.88888889 38.88888889 -5 40 C-5.23075082 41.34747084 -5.41153063 42.70377565 -5.5625 44.0625 C-5.706875 45.361875 -5.85125 46.66125 -6 48 C-6.66 48 -7.32 48 -8 48 C-7.26438153 37.99144455 -5.29229319 28.22282967 -3.4375 18.375 C-3.1044375 16.58991465 -2.77175196 14.80475892 -2.43945312 13.01953125 C-1.63064915 8.6788633 -0.81673848 4.33918169 0 0 Z " fill="#DAFCEE" transform="translate(141,238)"/>
<path d="M0 0 C0.33 0 0.66 0 1 0 C1 4.29 1 8.58 1 13 C0.34 13 -0.32 13 -1 13 C-0.979375 14.27875 -0.95875 15.5575 -0.9375 16.875 C-0.875 20.75 -0.875 20.75 -2 23 C-2.04022391 25.3329866 -2.04320247 27.66706666 -2 30 C-0.68 30.33 0.64 30.66 2 31 C-1.96 33.475 -1.96 33.475 -6 36 C-5.34418784 27.99456876 -4.00436594 20.24883052 -2.4375 12.375 C-2.08655273 10.58255859 -2.08655273 10.58255859 -1.72851562 8.75390625 C-1.15643102 5.83510725 -0.58017925 2.9171988 0 0 Z " fill="#42C37F" transform="translate(210,192)"/>
<path d="M0 0 C0.33 0 0.66 0 1 0 C0.4670455 9.76888031 -1.1952968 19.17183948 -3.0625 28.75 C-3.34757535 30.23686997 -3.63208419 31.72384867 -3.91601562 33.2109375 C-4.6041678 36.80856546 -5.2999145 40.40467271 -6 44 C-6.33 44 -6.66 44 -7 44 C-7 40.04 -7 36.08 -7 32 C-6.34 32 -5.68 32 -5 32 C-4.96261719 31.175 -4.92523438 30.35 -4.88671875 29.5 C-4.49592163 22.63423104 -3.77918608 16.00250065 -2.5 9.25 C-2.36940186 8.5590625 -2.23880371 7.868125 -2.10424805 7.15625 C-1.14297101 2.28594202 -1.14297101 2.28594202 0 0 Z " fill="#3EC17E" transform="translate(138,248)"/>
<path d="M0 0 C0.33 0 0.66 0 1 0 C0.41178175 9.54206355 -1.30375251 18.80987868 -3.0625 28.1875 C-3.34746037 29.72712937 -3.63196884 31.26684245 -3.91601562 32.80664062 C-4.60547825 36.53874462 -5.30102117 40.26966708 -6 44 C-6.33 44 -6.66 44 -7 44 C-7.05460198 42.1253321 -7.09306244 40.25019095 -7.125 38.375 C-7.14820313 37.33085937 -7.17140625 36.28671875 -7.1953125 35.2109375 C-6.98579828 31.76652365 -6.10982995 29.26375079 -5 26 C-4.21715967 22.30852812 -3.57999183 18.59314664 -2.9375 14.875 C-2.59359745 12.91386057 -2.24858855 10.95291475 -1.90234375 8.9921875 C-1.67792603 7.69837158 -1.67792603 7.69837158 -1.44897461 6.37841797 C-1.04253966 4.22535146 -0.55674944 2.11852815 0 0 Z " fill="#33AE6F" transform="translate(468,152)"/>
<path d="M0 0 C31.58898054 4.14172553 31.58898054 4.14172553 36.25 8.6875 C36.8275 9.450625 37.405 10.21375 38 11 C35.13275314 10.42655063 34.1385485 10.1385485 32 8 C29.99403108 7.56954664 27.96880339 7.22561097 25.9375 6.9375 C20.09722222 6.09722222 20.09722222 6.09722222 19 5 C17.33745302 4.81296346 15.66917374 4.67609655 14 4.5625 C8.83624478 4.14399958 4.02689424 3.23612153 -1 2 C-0.67 1.34 -0.34 0.68 0 0 Z " fill="#30AB6D" transform="translate(430,89)"/>
<path d="M0 0 C0.33 0 0.66 0 1 0 C1.0270043 1.45823212 1.04639787 2.91660675 1.0625 4.375 C1.07410156 5.18710937 1.08570313 5.99921875 1.09765625 6.8359375 C1 9 1 9 0 11 C-0.2275015 12.87056791 -0.40962811 14.74685958 -0.5625 16.625 C-0.68818359 18.12933594 -0.68818359 18.12933594 -0.81640625 19.6640625 C-0.87699219 20.43492187 -0.93757812 21.20578125 -1 22 C-1.66 22 -2.32 22 -3 22 C-2.9071875 23.5778125 -2.9071875 23.5778125 -2.8125 25.1875 C-2.77947637 31.29687123 -4.49396468 37.11929067 -6 43 C-6.33 43 -6.66 43 -7 43 C-6.48082969 33.4016249 -4.8328268 24.14688824 -2.9375 14.75 C-2.65239221 13.3113172 -2.36788329 11.87251559 -2.08398438 10.43359375 C-1.39620097 6.95433625 -0.70039933 3.47674264 0 0 Z " fill="#4AC486" transform="translate(188,314)"/>
<path d="M0 0 C2.40625 1.57421875 2.40625 1.57421875 4 3 C-1.31076622 2.56223619 -6.51549953 1.94993425 -11.75 0.9375 C-17.34905875 -0.19767336 -17.34905875 -0.19767336 -23 0 C-25.18369628 1.51017068 -27.02701751 3.20637956 -29 5 C-29.66 5 -30.32 5 -31 5 C-31 4.01 -31 3.02 -31 2 C-30.01 2 -29.02 2 -28 2 C-28.33 1.01 -28.66 0.02 -29 -1 C-20.26044676 -3.91318441 -8.77949619 -2.11567756 0 0 Z " fill="#47C586" transform="translate(360,131)"/>
<path d="M0 0 C0.66 0.33 1.32 0.66 2 1 C-1.8500872 6.19178426 -5.62866245 10.23253593 -12 12 C-17.98247128 12.60747459 -22.5670185 12.71649075 -28 10 C-22.39 10 -16.78 10 -11 10 C-11 9.34 -11 8.68 -11 8 C-9.02 7.67 -7.04 7.34 -5 7 C-5.33 6.01 -5.66 5.02 -6 4 C-4.68 4 -3.36 4 -2 4 C-2 3.01 -2 2.02 -2 1 C-1.34 0.67 -0.68 0.34 0 0 Z " fill="#37AF71" transform="translate(415,451)"/>
<path d="M0 0 C0.33 0 0.66 0 1 0 C1.02685938 2.14576637 1.04633088 4.29162645 1.0625 6.4375 C1.07410156 7.63246094 1.08570313 8.82742187 1.09765625 10.05859375 C1 13 1 13 0 14 C-0.18765656 15.47444444 -0.32421028 16.95548555 -0.4375 18.4375 C-0.91011899 23.72016067 -1.86560223 28.82362184 -3 34 C-3.66 34 -4.32 34 -5 34 C-4.51449551 22.49354365 -2.16717283 11.28315416 0 0 Z " fill="#43C383" transform="translate(216,158)"/>
<path d="M0 0 C12.21 1.98 24.42 3.96 37 6 C37 6.33 37 6.66 37 7 C20.61569416 7.30784708 20.61569416 7.30784708 16 5 C14.60798105 4.82139064 13.21096613 4.68044293 11.8125 4.5625 C7.66287965 4.14619505 3.96789371 3.26634906 0 2 C0 1.34 0 0.68 0 0 Z " fill="#30AC6E" transform="translate(245,57)"/>
<path d="M0 0 C1.04269043 0.27807495 1.04269043 0.27807495 2.10644531 0.56176758 C10.26156691 2.67558689 18.45111508 4.25381999 26.75 5.6875 C28.03132813 5.91244141 29.31265625 6.13738281 30.6328125 6.36914062 C33.75455714 6.91661077 36.87692876 7.46015849 40 8 C40 8.33 40 8.66 40 9 C31.97144188 8.56803676 24.02767263 7.69871442 16.0625 6.625 C15.16313721 6.51115967 14.26377441 6.39731934 13.3371582 6.2800293 C8.34682423 5.5815037 4.41273823 4.60257049 0 2 C0 1.34 0 0.68 0 0 Z " fill="#44C282" transform="translate(294,384)"/>
<path d="M0 0 C0.33 0 0.66 0 1 0 C0.88519969 2.85490236 0.75847036 5.7084588 0.625 8.5625 C0.5940625 9.36236328 0.563125 10.16222656 0.53125 10.98632812 C0.28832513 15.94604426 -0.50407986 20.23175456 -2 25 C-2.25055521 26.47260276 -2.46862543 27.95194159 -2.625 29.4375 C-2.74875 30.613125 -2.8725 31.78875 -3 33 C-3.66 32.67 -4.32 32.34 -5 32 C-4.29776886 24.91116148 -3.18931498 17.94854854 -1.9375 10.9375 C-1.75123047 9.88111328 -1.56496094 8.82472656 -1.37304688 7.73632812 C-0.91788796 5.1570943 -0.46015627 2.5783461 0 0 Z " fill="#2CA869" transform="translate(73,95)"/>
<path d="M0 0 C12.1780384 0.46748708 24.04097782 2.79456197 36 5 C36 5.33 36 5.66 36 6 C30.26681847 6.09761376 24.75047517 5.76171927 19.0625 5.0625 C18.29615234 4.97548828 17.52980469 4.88847656 16.74023438 4.79882812 C11.12771158 4.12771158 11.12771158 4.12771158 10 3 C7.68047431 2.71898054 5.36114486 2.55217375 3.03125 2.37890625 C2.3609375 2.25386719 1.690625 2.12882812 1 2 C0.67 1.34 0.34 0.68 0 0 Z " fill="#2FAC6E" transform="translate(310,69)"/>
<path d="M0 0 C0.99 0.33 1.98 0.66 3 1 C2.67 1.33 2.34 1.66 2 2 C1.81403613 3.87144591 1.6766224 5.74780304 1.5625 7.625 C1.20558716 12.35409507 0.42781614 16.46458402 -1 21 C-1.72153768 24.32300006 -2.36808206 27.65890195 -3 31 C-3.66 31 -4.32 31 -5 31 C-3.35 20.77 -1.7 10.54 0 0 Z " fill="#2CA96A" transform="translate(48,240)"/>
<path d="M0 0 C0.33 0 0.66 0 1 0 C1 2.31 1 4.62 1 7 C-3.95 7 -8.9 7 -14 7 C-14 6.34 -14 5.68 -14 5 C-15.01320312 5.05220703 -15.01320312 5.05220703 -16.046875 5.10546875 C-16.93890625 5.13253906 -17.8309375 5.15960938 -18.75 5.1875 C-20.07257813 5.23970703 -20.07257813 5.23970703 -21.421875 5.29296875 C-24.44671583 4.94923684 -25.75583602 3.99772541 -28 2 C-18.62420318 3.11843262 -9.29969612 4.34437228 0 6 C0 4.02 0 2.04 0 0 Z " fill="#3FC17F" transform="translate(180,358)"/>
<path d="M0 0 C0.66 0.33 1.32 0.66 2 1 C2 1.66 2 2.32 2 3 C1.1028125 3.1546875 1.1028125 3.1546875 0.1875 3.3125 C-2.37323587 4.1173027 -3.16094569 5.07592858 -5 7 C-12.99823866 14.51298987 -12.99823866 14.51298987 -18 16 C-18.928125 16.37125 -19.85625 16.7425 -20.8125 17.125 C-21.534375 17.41375 -22.25625 17.7025 -23 18 C-19.287098 14.068692 -15.37425348 10.95202734 -10.9375 7.875 C-9.7171898 7.01859685 -8.49713102 6.16183531 -7.27734375 5.3046875 C-6.71128418 4.90862305 -6.14522461 4.51255859 -5.56201172 4.10449219 C-3.6794713 2.77335545 -1.83285174 1.39863499 0 0 Z " fill="#3EC280" transform="translate(220,278)"/>
<path d="M0 0 C3.6607519 1.22025063 3.92339441 2.126491 5.6875 5.4375 C6.34298828 6.64212891 6.34298828 6.64212891 7.01171875 7.87109375 C8 10 8 10 8 12 C8.928125 12.433125 8.928125 12.433125 9.875 12.875 C12 14 12 14 14 16 C13.01 18.475 13.01 18.475 12 21 C8.39946657 16.88858007 6.10391758 12.56534033 3.75 7.6875 C3.38648438 6.94693359 3.02296875 6.20636719 2.6484375 5.44335938 C1.76009463 3.63160746 0.87927407 1.81617047 0 0 Z " fill="#3AC27C" transform="translate(297,272)"/>
<path d="M0 0 C0.66 0.99 1.32 1.98 2 3 C1.01 3.33 0.02 3.66 -1 4 C-1.03738281 4.53625 -1.07476562 5.0725 -1.11328125 5.625 C-1.5899928 11.3081495 -2.42562447 16.89149861 -3.4375 22.5 C-3.62082886 23.55960938 -3.62082886 23.55960938 -3.80786133 24.640625 C-4.76265911 29.76265911 -4.76265911 29.76265911 -7 32 C-6.55572179 25.22475727 -5.43429986 18.7014345 -4.0625 12.0625 C-3.89266602 11.22162842 -3.72283203 10.38075684 -3.54785156 9.5144043 C-3.29406738 8.31811401 -3.29406738 8.31811401 -3.03515625 7.09765625 C-2.8844165 6.38101807 -2.73367676 5.66437988 -2.57836914 4.92602539 C-2 3 -2 3 0 0 Z " fill="#32A46A" transform="translate(84,43)"/>
<path d="M0 0 C0.66 0.33 1.32 0.66 2 1 C1.09827532 2.17825358 0.17798498 3.34231577 -0.75 4.5 C-1.26046875 5.1496875 -1.7709375 5.799375 -2.296875 6.46875 C-4 8 -4 8 -8 8 C-8 8.99 -8 9.98 -8 11 C-7.34 11.33 -6.68 11.66 -6 12 C-7.32 12.33 -8.64 12.66 -10 13 C-10 12.34 -10 11.68 -10 11 C-11.32 11.33 -12.64 11.66 -14 12 C-9.73412126 7.45890328 -4.96387672 3.75264754 0 0 Z M-12 13 C-11.01 13.495 -11.01 13.495 -10 14 C-10.99 14.495 -10.99 14.495 -12 15 C-12 14.34 -12 13.68 -12 13 Z " fill="#33C279" transform="translate(364,171)"/>
<path d="M0 0 C0.66 0.66 1.32 1.32 2 2 C0.37982158 3.33918806 -1.24629343 4.6711969 -2.875 6 C-3.77992188 6.7425 -4.68484375 7.485 -5.6171875 8.25 C-8 10 -8 10 -10 10 C-10.66 8.68 -11.32 7.36 -12 6 C-10.875 4.4375 -10.875 4.4375 -9 3 C-5.8125 3.3125 -5.8125 3.3125 -3 4 C-3 3.34 -3 2.68 -3 2 C-2.01 1.34 -1.02 0.68 0 0 Z " fill="#30C479" transform="translate(302,153)"/>
<path d="M0 0 C0.66 0 1.32 0 2 0 C2.04254356 1.99954746 2.04080783 4.00041636 2 6 C1.67 6.33 1.34 6.66 1 7 C0.79300437 8.49496842 0.63320741 9.9966592 0.5 11.5 C0.11111111 15.88888889 0.11111111 15.88888889 -1 17 C-1.144375 18.155 -1.28875 19.31 -1.4375 20.5 C-1.623125 21.655 -1.80875 22.81 -2 24 C-2.66 24.33 -3.32 24.66 -4 25 C-3.02716362 16.5653016 -2.06297567 8.2519027 0 0 Z " fill="#2FAC6D" transform="translate(57,190)"/>
<path d="M0 0 C2.4198735 3.7135751 2.09579399 6.73552515 1.75 11.0625 C1.61851563 12.90521484 1.61851563 12.90521484 1.484375 14.78515625 C1 18 1 18 -1 21 C-1.66 21 -2.32 21 -3 21 C-2.29411026 13.94110263 -1.21786614 6.98795036 0 0 Z " fill="#2CA869" transform="translate(67,129)"/>
<path d="M0 0 C0.66 0.33 1.32 0.66 2 1 C1.319375 1.495 0.63875 1.99 -0.0625 2.5 C-2.58324451 4.64531447 -4.3357836 6.62351911 -6.375 9.1875 C-8.75664215 12.00882993 -10.22822735 13.49793683 -13.9375 14 C-14.948125 14 -15.95875 14 -17 14 C-13.46843481 10.31118515 -9.81465908 7.22617756 -5.6875 4.1875 C-5.13771484 3.78080078 -4.58792969 3.37410156 -4.02148438 2.95507812 C-2.68374453 1.96631389 -1.34226377 0.98261415 0 0 Z " fill="#3DC381" transform="translate(317,206)"/>
<path d="M0 0 C0.33 0 0.66 0 1 0 C0.46588214 8.85898937 -1.14289913 17.34520917 -3 26 C-3.33 26 -3.66 26 -4 26 C-4.34321453 17.38150178 -4.337108 7.69016628 0 0 Z " fill="#41C280" transform="translate(159,133)"/>
<path d="M0 0 C0.66 0 1.32 0 2 0 C1.45089248 9.82713114 -0.18142226 19.3466691 -2 29 C-2.33 29 -2.66 29 -3 29 C-2.85982174 26.02046641 -2.71313658 23.04150696 -2.5625 20.0625 C-2.52318359 19.21236328 -2.48386719 18.36222656 -2.44335938 17.48632812 C-2.40146484 16.67744141 -2.35957031 15.86855469 -2.31640625 15.03515625 C-2.27974854 14.2862915 -2.24309082 13.53742676 -2.20532227 12.76586914 C-2 11 -2 11 -1 10 C-0.76712992 8.31816052 -0.58735834 6.6287584 -0.4375 4.9375 C-0.31181641 3.55884766 -0.31181641 3.55884766 -0.18359375 2.15234375 C-0.12300781 1.44207031 -0.06242187 0.73179687 0 0 Z " fill="#33AE6D" transform="translate(449,256)"/>
<path d="M0 0 C0.66 0.33 1.32 0.66 2 1 C-1.48924446 6.85694606 -1.48924446 6.85694606 -3.8828125 7.52734375 C-4.58148438 7.68332031 -5.28015625 7.83929688 -6 8 C-8.13124078 9.26265963 -10.15015552 10.6421817 -12.1953125 12.0390625 C-12.79085937 12.35617188 -13.38640625 12.67328125 -14 13 C-14.66 12.67 -15.32 12.34 -16 12 C-10.72 8.04 -5.44 4.08 0 0 Z " fill="#DCFBEB" transform="translate(225,212)"/>
<path d="M0 0 C-4.95 3.63 -9.9 7.26 -15 11 C-15.33 10.01 -15.66 9.02 -16 8 C-14.68 7.67 -13.36 7.34 -12 7 C-12 6.34 -12 5.68 -12 5 C-11.01 5 -10.02 5 -9 5 C-9 4.01 -9 3.02 -9 2 C-8.01 2 -7.02 2 -6 2 C-6 1.34 -6 0.68 -6 0 C-4 -1 -4 -1 0 0 Z " fill="#3CC37D" transform="translate(262,186)"/>
<path d="M0 0 C9.82713114 0.54910752 19.3466691 2.18142226 29 4 C29 4.33 29 4.66 29 5 C20.66360998 4.36804785 12.33049713 3.70546552 4 3 C4 2.34 4 1.68 4 1 C2.68 0.67 1.36 0.34 0 0 Z " fill="#31AB6D" transform="translate(200,50)"/>
<path d="M0 0 C2.475 0.99 2.475 0.99 5 2 C5 2.66 5 3.32 5 4 C5.99 4 6.98 4 8 4 C8.33 4.99 8.66 5.98 9 7 C11.56042066 8.03038956 11.56042066 8.03038956 14.5625 8.6875 C15.57441406 8.93886719 16.58632813 9.19023437 17.62890625 9.44921875 C18.41136719 9.63097656 19.19382812 9.81273437 20 10 C20 10.33 20 10.66 20 11 C13.59232126 10.70940232 9.27731389 9.72516275 4 6 C0 1.58974359 0 1.58974359 0 0 Z " fill="#2FA96D" transform="translate(28,392)"/>
<path d="M0 0 C1.32 0.33 2.64 0.66 4 1 C1.91689914 2.60446931 -0.16647227 4.20858518 -2.25 5.8125 C-3.12978516 6.49022461 -3.12978516 6.49022461 -4.02734375 7.18164062 C-5.16995143 8.06106339 -6.31379744 8.93888 -7.45898438 9.81494141 C-8.74766407 10.80595079 -10.02385914 11.81316704 -11.296875 12.82421875 C-13 14 -13 14 -15 14 C-15 13.34 -15 12.68 -15 12 C-14.34 12 -13.68 12 -13 12 C-13 11.34 -13 10.68 -13 10 C-11.906875 9.401875 -10.81375 8.80375 -9.6875 8.1875 C-7.05781761 6.69770009 -5.08740271 5.19726601 -3 3 C-2.34 3 -1.68 3 -1 3 C-0.67 2.01 -0.34 1.02 0 0 Z " fill="#41C180" transform="translate(236,201)"/>
<path d="M0 0 C0.66 0.33 1.32 0.66 2 1 C-3.75591932 8.39764202 -3.75591932 8.39764202 -9 10 C-9.66 10.66 -10.32 11.32 -11 12 C-11.99 11.67 -12.98 11.34 -14 11 C-9.38 7.37 -4.76 3.74 0 0 Z " fill="#3BC17D" transform="translate(396,147)"/>
<path d="M0 0 C0.96804074 3.10515305 0.98121797 5.3511896 0.44140625 8.546875 C0.30283203 9.39121094 0.16425781 10.23554688 0.02148438 11.10546875 C-0.12998047 11.97816406 -0.28144531 12.85085938 -0.4375 13.75 C-0.58509766 14.63816406 -0.73269531 15.52632813 -0.88476562 16.44140625 C-1.24935014 18.62891336 -1.62132066 20.81489642 -2 23 C-3.98 23 -5.96 23 -8 23 C-7.37480469 22.51789063 -6.74960938 22.03578125 -6.10546875 21.5390625 C-3.19559046 18.02993284 -2.91812843 14.8038901 -2.3125 10.375 C-1.07645487 2.15290974 -1.07645487 2.15290974 0 0 Z " fill="#D3FAE7" transform="translate(182,341)"/>
<path d="M0 0 C0.66 0.33 1.32 0.66 2 1 C1.67 1.99 1.34 2.98 1 4 C-0.32 4 -1.64 4 -3 4 C-3 4.66 -3 5.32 -3 6 C-4.32 6.33 -5.64 6.66 -7 7 C-7 8.32 -7 9.64 -7 11 C-9.31 11.33 -11.62 11.66 -14 12 C-9.73412126 7.45890328 -4.96387672 3.75264754 0 0 Z " fill="#3EC180" transform="translate(380,159)"/>
<path d="M0 0 C1.09916562 3.29749685 0.89023727 4.54881363 0.22265625 7.88671875 C0.03896484 8.82451172 -0.14472656 9.76230469 -0.33398438 10.72851562 C-0.53314453 11.70498047 -0.73230469 12.68144531 -0.9375 13.6875 C-1.13279297 14.67556641 -1.32808594 15.66363281 -1.52929688 16.68164062 C-2.01275776 19.12252852 -2.50323966 21.56179009 -3 24 C-3.33 24 -3.66 24 -4 24 C-3.505 15.09 -3.505 15.09 -3 6 C-2.34 6 -1.68 6 -1 6 C-0.67 4.02 -0.34 2.04 0 0 Z " fill="#42C281" transform="translate(144,218)"/>
<path d="M0 0 C0.66 0 1.32 0 2 0 C8.51936219 11.52164009 8.51936219 11.52164009 10 17 C10.66 17 11.32 17 12 17 C12 17.99 12 18.98 12 20 C11.34 20 10.68 20 10 20 C8.33002304 16.85591306 6.66457635 13.70944906 5 10.5625 C4.52304687 9.66466797 4.04609375 8.76683594 3.5546875 7.84179688 C3.10351562 6.98779297 2.65234375 6.13378906 2.1875 5.25390625 C1.76855469 4.46314697 1.34960938 3.6723877 0.91796875 2.85766602 C0 1 0 1 0 0 Z " fill="#3FBF7E" transform="translate(315,305)"/>
<path d="M0 0 C0.33 0 0.66 0 1 0 C1.02686553 1.97909398 1.04633375 3.95828971 1.0625 5.9375 C1.07410156 7.03964844 1.08570313 8.14179688 1.09765625 9.27734375 C1 12 1 12 0 13 C-0.23075082 14.34747084 -0.41153063 15.70377565 -0.5625 17.0625 C-0.706875 18.361875 -0.85125 19.66125 -1 21 C-1.66 21 -2.32 21 -3 21 C-2.69073032 18.24960167 -2.3777116 15.49971822 -2.0625 12.75 C-1.97548828 11.97269531 -1.88847656 11.19539062 -1.79882812 10.39453125 C-1.71181641 9.64042969 -1.62480469 8.88632813 -1.53515625 8.109375 C-1.456604 7.41811523 -1.37805176 6.72685547 -1.29711914 6.01464844 C-0.99455017 3.96304687 -0.53587616 2.00217465 0 0 Z " fill="#D3F9E9" transform="translate(156,155)"/>
<path d="M0 0 C4.40496044 1.46832015 5.44016221 4.44518044 7.703125 8.34375 C9.34317254 11.70288352 9.83874115 14.29104646 10 18 C7.16811225 14.5494537 5.25496982 10.74037641 3.3125 6.75 C2.99216797 6.1003125 2.67183594 5.450625 2.34179688 4.78125 C1.55752859 3.18930243 0.77825745 1.59489471 0 0 Z " fill="#3EC280" transform="translate(352,375)"/>
<path d="M0 0 C0.33 0.99 0.66 1.98 1 3 C0.443125 3.226875 -0.11375 3.45375 -0.6875 3.6875 C-3.20719021 4.96985002 -3.20719021 4.96985002 -5.4375 7.5625 C-8.1178537 10.11210474 -9.39068083 10.69062979 -13 11 C-9.0299782 6.78185183 -4.69159716 3.38772897 0 0 Z " fill="#3CC27F" transform="translate(340,189)"/>
<path d="M0 0 C6 7.71428571 6 7.71428571 6 11 C3.03 10.505 3.03 10.505 0 10 C0 9.01 0 8.02 0 7 C-0.66 6.67 -1.32 6.34 -2 6 C-1.34 4.02 -0.68 2.04 0 0 Z " fill="#33C47A" transform="translate(235,277)"/>
<path d="M0 0 C0.33 0.99 0.66 1.98 1 3 C-0.1446875 3.2165625 -0.1446875 3.2165625 -1.3125 3.4375 C-5.04787745 5.60923108 -5.37092715 8.0782752 -6.51953125 12.1015625 C-6.75736328 13.04128906 -6.75736328 13.04128906 -7 14 C-8.28630198 9.78944314 -7.57582153 7.12715163 -6 3 C-2.90322581 0 -2.90322581 0 0 0 Z " fill="#46C685" transform="translate(197,296)"/>
<path d="M0 0 C3 1 3 1 4.1875 3.0625 C4.455625 3.701875 4.72375 4.34125 5 5 C4.0925 4.773125 3.185 4.54625 2.25 4.3125 C-0.99124647 3.64994826 -0.99124647 3.64994826 -3.1875 5.5 C-3.785625 5.995 -4.38375 6.49 -5 7 C-5.99 6.67 -6.98 6.34 -8 6 C-6.7391988 4.96680187 -5.46596742 3.94875621 -4.1875 2.9375 C-3.47980469 2.36902344 -2.77210938 1.80054688 -2.04296875 1.21484375 C-1.36878906 0.81394531 -0.69460937 0.41304688 0 0 Z " fill="#3CBF7B" transform="translate(230,271)"/>
<path d="M0 0 C0.33 0 0.66 0 1 0 C0.91304042 2.60578866 0.80618592 5.2081279 0.6875 7.8125 C0.66494141 8.55048828 0.64238281 9.28847656 0.61914062 10.04882812 C0.3453392 15.54974762 0.3453392 15.54974762 -1.54296875 18.01171875 C-2.26419922 18.50091797 -2.26419922 18.50091797 -3 19 C-2.37679879 12.56025419 -1.35991738 6.32427599 0 0 Z " fill="#CDF7E2" transform="translate(141,238)"/>
<path d="M0 0 C0.99 0 1.98 0 3 0 C3 0.99 3 1.98 3 3 C3.66 3 4.32 3 5 3 C5.69937202 4.4317616 6.38412718 5.87067032 7.0625 7.3125 C7.44535156 8.11300781 7.82820312 8.91351563 8.22265625 9.73828125 C9 12 9 12 8 15 C6.66407203 12.6889639 5.33115569 10.37628245 4 8.0625 C3.6184375 7.40314453 3.236875 6.74378906 2.84375 6.06445312 C0 1.11328125 0 1.11328125 0 0 Z " fill="#D8FCEB" transform="translate(248,300)"/>
<path d="M0 0 C0.33 0 0.66 0 1 0 C1.05418326 2.08304538 1.09287551 4.16649768 1.125 6.25 C1.14820313 7.41015625 1.17140625 8.5703125 1.1953125 9.765625 C1.0103949 12.82786046 0.60823023 14.44202751 -1 17 C-2.59854133 11.0853971 -1.25890714 5.84715547 0 0 Z " fill="#46C786" transform="translate(222,125)"/>
<path d="M0 0 C0.66 0.33 1.32 0.66 2 1 C1.0919838 2.13199353 0.17316174 3.25532363 -0.75 4.375 C-1.26046875 5.00148438 -1.7709375 5.62796875 -2.296875 6.2734375 C-4.08199481 8.08312318 -5.67949644 9.00117455 -8 10 C-8.33 9.01 -8.66 8.02 -9 7 C-7.68 7 -6.36 7 -5 7 C-5.33 6.01 -5.66 5.02 -6 4 C-4.68 4 -3.36 4 -2 4 C-2 3.01 -2 2.02 -2 1 C-1.34 0.67 -0.68 0.34 0 0 Z " fill="#2CAB6B" transform="translate(415,451)"/>
<path d="M0 0 C1.5 1.375 1.5 1.375 3 3 C3 3.66 3 4.32 3 5 C-2.00890086 4.38487182 -7.00632136 3.7282448 -12 3 C-12 2.67 -12 2.34 -12 2 C-8.37 2 -4.74 2 -1 2 C-0.67 1.34 -0.34 0.68 0 0 Z " fill="#C0F6DA" transform="translate(361,393)"/>
<path d="M0 0 C0.66 0 1.32 0 2 0 C1.85786703 1.89611434 1.71113093 3.79188394 1.5625 5.6875 C1.48128906 6.74324219 1.40007812 7.79898437 1.31640625 8.88671875 C1.03548319 11.65086297 0.59843148 14.28945741 0 17 C-1.4606285 14.35261084 -2 13.10551666 -2 10 C-1.34 10 -0.68 10 0 10 C0 6.7 0 3.4 0 0 Z " fill="#2FAA6F" transform="translate(427,384)"/>
<path d="M0 0 C4.42857143 5.14285714 4.42857143 5.14285714 5 9 C3.35 8.67 1.7 8.34 0 8 C-0.79953138 4.71303767 -1.09658936 3.28976808 0 0 Z " fill="#37C67C" transform="translate(267,335)"/>
<path d="M0 0 C0.66 0 1.32 0 2 0 C2.66 1.98 3.32 3.96 4 6 C5.32 6 6.64 6 8 6 C7.34 7.65 6.68 9.3 6 11 C2.90407165 7.4912812 1.25805377 4.50802601 0 0 Z " fill="#3FC37E" transform="translate(278,235)"/>
<path d="M0 0 C0.33 0.99 0.66 1.98 1 3 C0.2575 3.4125 -0.485 3.825 -1.25 4.25 C-4.06208289 5.8726442 -4.06208289 5.8726442 -6.0625 8.25 C-6.701875 8.8275 -7.34125 9.405 -8 10 C-9.32 9.67 -10.64 9.34 -12 9 C-8.04 6.03 -4.08 3.06 0 0 Z " fill="#3EC280" transform="translate(292,225)"/>
<path d="M0 0 C0.33 0.99 0.66 1.98 1 3 C-2.65333143 5.63379708 -5.48521602 7.46884894 -10 8 C-6.88983545 4.71211176 -3.98381075 2.16264012 0 0 Z " fill="#E0FDED" transform="translate(331,135)"/>
<path d="M0 0 C2.1519437 3.22791555 2.20086443 4.28400809 2 8 C1.34 8 0.68 8 0 8 C0 10.31 0 12.62 0 15 C-0.99 15.495 -0.99 15.495 -2 16 C-1.34 10.72 -0.68 5.44 0 0 Z " fill="#2FA268" transform="translate(41,280)"/>
<path d="M0 0 C0.66 0.33 1.32 0.66 2 1 C1.34 2.98 0.68 4.96 0 7 C-0.66 6.34 -1.32 5.68 -2 5 C-2.99 5.66 -3.98 6.32 -5 7 C-5.66 6.34 -6.32 5.68 -7 5 C-4.69 3.35 -2.38 1.7 0 0 Z " fill="#3AC67F" transform="translate(348,183)"/>
<path d="M0 0 C1.875 0.125 1.875 0.125 4 1 C5.76708665 4.78661425 6.1914033 7.04865524 5 11 C4.16151196 9.54462432 3.32936066 8.08559627 2.5 6.625 C1.80390625 5.40683594 1.80390625 5.40683594 1.09375 4.1640625 C0 2 0 2 0 0 Z " fill="#3DC37E" transform="translate(339,350)"/>
<path d="M0 0 C1.32 0.33 2.64 0.66 4 1 C4.66 4.3 5.32 7.6 6 11 C0 3 0 3 0 0 Z " fill="#3CC27E" transform="translate(329,331)"/>
<path d="M0 0 C0.66 0.33 1.32 0.66 2 1 C0.6875 3 0.6875 3 -1 5 C-1.99 5 -2.98 5 -4 5 C-4.33 5.99 -4.66 6.98 -5 8 C-6.32 7.67 -7.64 7.34 -9 7 C-6.03 4.69 -3.06 2.38 0 0 Z " fill="#D7FCEA" transform="translate(315,146)"/>
<path d="M0 0 C2.00720923 0.28674418 4.0085944 0.61866701 6 1 C4.37660195 2.70884005 2.70680947 4.37446717 1 6 C0.34 6 -0.32 6 -1 6 C-1.042721 4.33388095 -1.04063832 2.66617115 -1 1 C-0.67 0.67 -0.34 0.34 0 0 Z " fill="#33C478" transform="translate(308,146)"/>
<path d="M0 0 C1.32 0.66 2.64 1.32 4 2 C3.67 3.32 3.34 4.64 3 6 C2.67 5.34 2.34 4.68 2 4 C0.02 4.66 -1.96 5.32 -4 6 C-4 5.01 -4 4.02 -4 3 C-2 1.3125 -2 1.3125 0 0 Z " fill="#D9F9EB" transform="translate(230,268)"/>
<path d="M0 0 C-1.20819367 3.624581 -1.80341913 3.40170957 -5 5 C-5.33 5.99 -5.66 6.98 -6 8 C-7.32 7.34 -8.64 6.68 -10 6 C-8.71283353 4.99421411 -7.42011342 3.99553202 -6.125 3 C-5.40570313 2.443125 -4.68640625 1.88625 -3.9453125 1.3125 C-2 0 -2 0 0 0 Z " fill="#D8FCEB" transform="translate(260,188)"/>
<path d="M0 0 C1.44977894 2.34112451 2.04314411 3.5796929 1.7578125 6.359375 C1.54898438 7.14828125 1.34015625 7.9371875 1.125 8.75 C0.92132813 9.54921875 0.71765625 10.3484375 0.5078125 11.171875 C0.34023437 11.77515625 0.17265625 12.3784375 0 13 C-0.66 13 -1.32 13 -2 13 C-1.85769192 11.58297487 -1.71099254 10.1663904 -1.5625 8.75 C-1.48128906 7.96109375 -1.40007812 7.1721875 -1.31640625 6.359375 C-1.02365007 4.17635361 -0.57935581 2.1226818 0 0 Z " fill="#4BC689" transform="translate(219,143)"/>
<path d="M0 0 C0.99 0.33 1.98 0.66 3 1 C-1.455 3.97 -1.455 3.97 -6 7 C-5.67 5.68 -5.34 4.36 -5 3 C-4.01 3 -3.02 3 -2 3 C-2 2.34 -2 1.68 -2 1 C-1.34 0.67 -0.68 0.34 0 0 Z " fill="#DCFDED" transform="translate(301,216)"/>
<path d="M0 0 C3.0916909 2.52956528 3.90931332 5.22454612 5 9 C3.0625 8.4375 3.0625 8.4375 1 7 C0.25 3.375 0.25 3.375 0 0 Z " fill="#43C27F" transform="translate(280,359)"/>
<path d="M0 0 C3 1 3 1 4.75 3.375 C6 6 6 6 5 9 C2.67527795 6.14693203 1.2491742 3.45925163 0 0 Z " fill="#3AC37F" transform="translate(292,262)"/>
<path d="M0 0 C1.9375 0.375 1.9375 0.375 4 1 C4.33 1.66 4.66 2.32 5 3 C4.34 3 3.68 3 3 3 C2.67 4.32 2.34 5.64 2 7 C0.5393715 4.35261084 0 3.10551666 0 0 Z " fill="#2DC074" transform="translate(362,391)"/>
<path d="M0 0 C0.33 0 0.66 0 1 0 C1 1.98 1 3.96 1 6 C1.99 6.33 2.98 6.66 4 7 C1.525 8.485 1.525 8.485 -1 10 C-0.67 6.7 -0.34 3.4 0 0 Z " fill="#62C594" transform="translate(205,218)"/>
<path d="M0 0 C0.66 0.33 1.32 0.66 2 1 C-2.75 5.875 -2.75 5.875 -5 7 C-5.66 6.34 -6.32 5.68 -7 5 C-4.69 3.35 -2.38 1.7 0 0 Z " fill="#DAFBEC" transform="translate(277,174)"/>
<path d="M0 0 C0.99 0.66 1.98 1.32 3 2 C1.125 3.0625 1.125 3.0625 -1 4 C-1.66 3.67 -2.32 3.34 -3 3 C-3 3.66 -3 4.32 -3 5 C-3.66 5 -4.32 5 -5 5 C-4 2 -4 2 -1.9375 0.8125 C-1.298125 0.544375 -0.65875 0.27625 0 0 Z " fill="#2AB36F" transform="translate(95,34)"/>
<path d="M0 0 C1.32 0 2.64 0 4 0 C4 2.31 4 4.62 4 7 C0 2.25 0 2.25 0 0 Z " fill="#39C37E" transform="translate(345,361)"/>
<path d="M0 0 C0 0.99 0 1.98 0 3 C-2.31 3.33 -4.62 3.66 -7 4 C-3.375 0 -3.375 0 0 0 Z " fill="#31C17B" transform="translate(373,167)"/>
<path d="M0 0 C-2.31 1.65 -4.62 3.3 -7 5 C-7.33 4.34 -7.66 3.68 -8 3 C-6.14481495 -0.71037009 -3.79223618 -1.26407873 0 0 Z " fill="#D6FCE9" transform="translate(399,146)"/>
</svg>
